<?xml version="1.0" standalone="no"?>
<!DOCTYPE svg PUBLIC "-//W3C//DTD SVG 20010904//EN"
 "http://www.w3.org/TR/2001/REC-SVG-20010904/DTD/svg10.dtd">
<svg version="1.0" xmlns="http://www.w3.org/2000/svg"
 width="512.000000pt" height="512.000000pt" viewBox="0 0 512.000000 512.000000"
 preserveAspectRatio="xMidYMid meet">
<metadata>
Created by potrace 1.14, written by Peter Selinger 2001-2017
</metadata>
<g transform="translate(0.000000,512.000000) scale(0.100000,-0.100000)"
fill="#000000" stroke="none">
<path d="M2349 4826 c-2 -2 -47 -6 -99 -10 -109 -7 -147 -11 -285 -31 -55 -8
-167 -15 -249 -16 -82 -1 -169 -6 -193 -10 -116 -22 -153 -68 -132 -167 7 -31
12 -78 12 -104 0 -119 -7 -134 -68 -142 -94 -14 -153 -30 -205 -56 -31 -15
-84 -39 -118 -53 -34 -14 -75 -39 -91 -55 -16 -16 -58 -39 -93 -51 -48 -18
-76 -36 -118 -80 -30 -31 -77 -73 -105 -93 -72 -53 -124 -111 -194 -215 -80
-121 -123 -206 -135 -270 -2 -10 -18 -81 -36 -157 -52 -226 -54 -345 -9 -486
23 -75 69 -146 90 -143 8 2 19 -10 25 -25 6 -16 28 -41 48 -57 35 -27 39 -28
74 -15 44 15 51 25 53 65 l1 30 14 -33 c14 -32 16 -33 57 -27 64 10 77 15 77
31 0 16 16 19 25 4 9 -14 48 -13 63 2 7 7 12 26 12 42 l0 31 18 -27 18 -27 34
21 c88 53 166 182 196 321 20 96 35 121 82 135 22 7 61 30 88 51 27 22 72 46
99 55 48 14 74 18 214 32 l63 7 -7 -44 c-40 -252 -85 -363 -167 -412 -96 -59
-129 -105 -136 -193 -6 -77 11 -130 71 -221 32 -47 48 -62 71 -67 273 -49 338
-58 476 -61 47 -1 97 2 111 6 l27 7 -34 -73 c-18 -39 -38 -93 -44 -118 -5 -26
-21 -77 -35 -114 -16 -41 -22 -69 -16 -71 7 -2 6 -13 -3 -30 -8 -15 -21 -44
-30 -66 -15 -37 -15 -38 4 -33 21 5 21 4 -1 -83 -13 -50 -11 -70 4 -64 10 4
14 -9 16 -50 1 -30 3 -63 5 -73 2 -10 7 -36 10 -57 9 -50 47 -117 63 -112 6 3
21 -18 33 -48 24 -61 90 -134 90 -100 0 15 9 9 36 -24 20 -24 57 -59 83 -78
25 -20 46 -41 46 -46 0 -16 25 -22 26 -6 1 7 7 -5 13 -27 8 -24 21 -44 35 -50
12 -5 24 -20 27 -32 3 -12 12 -24 19 -26 8 -4 11 -18 8 -43 -2 -21 -5 -39 -6
-41 -2 -1 -27 -4 -57 -7 -30 -2 -74 -8 -97 -11 -30 -5 -48 -4 -60 6 -16 12
-17 12 -5 -2 10 -14 9 -17 -7 -22 -11 -2 -25 0 -32 7 -9 8 -10 8 -5 -1 4 -7
-6 -14 -26 -18 -39 -9 -83 -48 -73 -65 6 -9 10 -9 17 1 7 11 11 11 15 2 2 -7
9 -13 14 -13 6 0 7 5 3 11 -4 7 1 9 12 7 11 -2 18 -11 16 -18 -2 -10 3 -9 17
4 12 11 21 14 21 8 0 -7 5 -12 11 -12 5 0 7 4 4 10 -3 5 -2 10 4 10 5 0 12 -6
14 -12 4 -10 6 -10 6 0 1 8 17 12 47 12 25 0 54 5 65 10 14 8 19 7 19 -1 0 -8
5 -7 17 2 16 14 -19 -41 -44 -69 -7 -7 -13 -18 -13 -23 0 -5 -5 -9 -11 -9 -5
0 -7 5 -3 12 5 7 3 8 -5 3 -8 -5 -9 -11 -3 -17 11 -11 -35 -101 -48 -93 -5 3
-12 0 -16 -6 -4 -8 -3 -9 5 -5 13 8 6 -33 -10 -66 -5 -10 -5 -19 0 -22 8 -6
34 12 82 56 22 20 34 24 23 6 -4 -7 -3 -8 4 -4 6 4 8 14 5 23 -5 12 -3 14 7 8
8 -5 11 -3 8 6 -3 8 0 19 6 25 6 6 26 28 44 48 25 29 36 36 45 27 6 -6 16 -11
21 -11 6 0 3 5 -6 11 -15 8 -16 13 -6 29 7 10 16 16 20 14 7 -5 12 11 9 29 -1
5 3 6 9 2 5 -3 10 0 10 7 0 12 54 -70 55 -83 0 -3 8 -13 17 -23 9 -9 15 -23
11 -32 -5 -13 -8 -12 -26 3 l-21 18 20 -26 c17 -24 20 -25 32 -10 12 14 13 12
7 -14 -4 -21 -3 -26 4 -15 8 12 13 11 31 -5 11 -10 19 -24 16 -31 -3 -7 2 -20
9 -31 16 -20 20 -37 7 -29 -4 2 -14 0 -22 -5 -12 -7 -10 -8 7 -6 31 4 38 14
24 31 -6 8 -10 20 -9 27 4 19 57 47 82 43 11 -2 30 -5 40 -6 10 -2 21 3 23 10
3 6 0 12 -7 12 -6 0 -8 -4 -5 -10 3 -5 2 -10 -3 -10 -8 0 -22 22 -22 33 0 1
20 2 45 3 28 0 44 -4 42 -10 -2 -6 -12 -10 -22 -8 -14 3 -15 1 -4 -11 8 -8 17
-13 21 -11 3 2 8 -2 11 -8 2 -7 4 1 3 18 -1 17 -7 39 -15 48 -8 9 -9 16 -3 16
6 0 18 -9 26 -21 9 -13 19 -18 27 -13 9 5 10 2 6 -10 -4 -10 -7 -21 -7 -24 0
-4 -4 -1 -9 6 -5 9 -8 3 -9 -17 0 -17 4 -33 9 -36 5 -4 9 -11 9 -17 0 -7 -14
1 -30 17 -17 16 -30 24 -30 19 0 -5 11 -18 25 -28 13 -10 22 -23 19 -28 -4 -6
-10 -5 -15 3 -6 10 -9 10 -9 2 0 -20 18 -24 34 -7 19 18 20 26 5 41 -7 7 -9
18 -6 26 7 19 75 16 88 -4 5 -8 9 -9 9 -4 0 6 -5 16 -12 23 -9 9 -9 12 0 12 7
0 15 -7 18 -15 4 -8 10 -13 14 -10 5 3 12 0 15 -5 5 -7 12 -5 20 7 9 13 10 22
3 30 -6 7 -7 13 -2 13 12 -1 70 -60 58 -60 -6 0 -15 5 -22 12 -9 9 -15 9 -23
1 -14 -14 19 -64 40 -60 17 3 27 27 11 27 -6 0 -8 -4 -5 -10 11 -19 -10 -10
-28 11 -20 23 -17 36 5 23 18 -12 98 -15 98 -4 0 5 -8 7 -17 3 -14 -5 -13 -1
4 16 24 22 39 28 28 10 -4 -6 3 -20 14 -31 18 -16 25 -17 36 -8 8 7 15 9 15 4
0 -5 4 -4 8 3 4 7 23 15 42 18 19 3 36 8 38 10 9 9 34 -27 28 -41 -3 -8 -2
-12 4 -9 6 3 10 13 10 21 0 8 5 12 10 9 6 -4 8 -11 5 -16 -4 -5 -1 -9 4 -9 6
0 11 4 11 9 0 9 -31 38 -37 34 -1 -2 -3 0 -2 5 1 4 6 6 11 4 6 -2 19 5 29 14
11 9 19 14 19 9 0 -4 7 -2 15 5 8 7 15 9 15 5 0 -4 11 0 24 8 13 9 26 14 29
11 7 -7 -14 -87 -26 -99 -7 -7 -7 -5 -2 5 5 8 5 12 0 8 -15 -14 -35 13 -28 40
4 18 2 23 -6 18 -6 -4 -9 -11 -6 -16 6 -10 -24 -22 -37 -14 -5 3 -4 -3 4 -15
11 -18 13 -19 19 -4 3 11 8 13 12 6 4 -6 0 -19 -9 -27 -8 -9 -10 -16 -4 -16 6
0 13 7 17 15 5 14 8 14 24 -1 23 -20 24 -34 5 -34 -20 0 -27 -13 -14 -30 8
-12 9 -12 4 3 -3 9 -1 17 5 17 7 0 8 -10 4 -27 -5 -16 -9 -59 -10 -96 -2 -54
0 -67 10 -63 8 3 16 0 19 -7 3 -7 4 2 3 18 -1 22 2 30 14 29 11 -1 15 5 12 17
-3 11 0 19 6 19 7 0 10 -4 6 -9 -3 -5 0 -13 6 -17 7 -4 9 -3 5 4 -3 6 3 17 14
25 18 13 19 15 5 21 -10 4 -14 2 -9 -6 5 -7 3 -8 -6 -3 -9 6 -11 4 -5 -5 5 -9
4 -11 -4 -6 -8 5 -9 12 -2 19 5 7 10 15 10 19 4 23 15 38 27 38 8 0 14 4 14
10 0 5 -8 7 -17 4 -13 -4 -15 -3 -5 4 12 8 18 25 21 55 1 4 5 7 10 7 10 0 9
-19 -2 -37 -6 -9 -3 -11 8 -7 9 4 14 12 11 19 -3 8 4 12 19 13 17 0 22 -5 18
-17 -4 -13 -3 -14 5 -1 12 16 6 31 -11 29 -24 -3 -35 1 -41 16 -4 12 -2 13 13
6 13 -7 24 -6 37 4 18 13 18 14 -3 12 -12 0 -19 -5 -16 -11 3 -5 2 -6 -4 -3
-13 8 -9 50 5 55 7 2 12 -1 12 -8 0 -6 -6 -8 -12 -4 -7 4 -9 3 -5 -1 14 -16
33 -13 33 5 0 10 -3 18 -6 18 -25 -2 -30 3 -18 16 11 11 15 11 25 -3 7 -9 13
-13 13 -9 0 4 10 -3 23 -15 14 -14 18 -25 12 -29 -6 -5 -2 -8 8 -8 9 0 31 -12
48 -28 18 -15 37 -31 43 -37 14 -12 54 -35 61 -35 2 0 2 7 -1 15 -7 18 7 20
26 3 12 -11 12 -10 1 4 -7 9 -9 23 -5 30 6 10 5 11 -8 1 -12 -11 -17 -9 -27
13 -9 20 -9 24 1 18 7 -4 -6 11 -30 34 -24 23 -40 42 -35 42 5 0 13 -3 19 -7
5 -5 -1 1 -13 12 -25 22 -32 45 -9 25 11 -9 19 -9 33 0 16 10 16 10 -3 5 -17
-4 -20 -1 -19 17 1 12 7 24 13 26 7 2 12 8 12 14 0 6 -8 4 -18 -5 -16 -15 -19
-15 -31 4 -7 12 -9 24 -5 27 4 4 9 1 11 -5 3 -7 9 -13 15 -13 7 0 7 5 -1 13
-21 26 2 27 25 1 l24 -25 -5 41 c-3 24 -1 40 5 40 5 0 9 -5 7 -11 -1 -6 5 -14
13 -16 12 -4 12 -3 2 5 -8 5 -13 13 -13 18 1 5 -5 9 -11 9 -8 0 -12 -11 -11
-29 2 -27 2 -28 -17 -11 -20 18 -28 41 -11 31 5 -3 12 1 15 10 9 23 8 24 -19
34 -14 5 -25 17 -26 27 0 14 -2 13 -9 -4 -12 -28 -30 -30 -23 -3 3 12 0 20 -6
20 -7 0 -9 -4 -6 -10 3 -5 3 -16 -2 -22 -18 -30 -10 -37 18 -17 16 11 29 16
29 10 0 -6 -9 -15 -20 -21 -11 -6 -18 -15 -15 -21 9 -13 -9 -11 -22 2 -15 15
-12 -7 5 -37 6 -12 8 -24 5 -28 -3 -3 -1 -6 6 -6 8 0 10 8 6 23 -3 12 3 5 15
-15 11 -20 24 -40 30 -43 5 -3 10 -11 10 -17 0 -6 -8 -4 -18 5 -10 10 -22 17
-27 17 -5 0 0 -7 11 -15 10 -8 14 -15 8 -15 -14 0 -46 35 -39 42 3 3 -5 12
-18 21 -26 17 -30 54 -9 79 6 8 9 18 5 21 -3 4 0 13 7 22 9 11 9 15 1 15 -7 0
-3 10 9 22 11 12 20 27 20 32 0 6 -5 4 -10 -4 -5 -8 -20 -15 -33 -15 -19 -1
-23 3 -19 22 2 13 9 26 15 30 6 4 7 1 3 -8 -4 -8 2 -3 13 10 12 13 21 34 21
47 0 13 4 24 10 24 5 0 7 8 3 17 -5 15 -3 16 8 6 20 -19 28 -16 25 11 -2 17 3
26 16 29 10 3 18 9 17 14 -4 26 2 63 11 58 5 -3 12 12 16 34 4 22 9 40 13 39
3 0 21 0 40 1 29 1 32 3 21 16 -11 13 -8 15 13 15 42 0 80 18 73 35 -4 12 4
15 40 15 37 0 45 3 40 15 -3 10 1 15 12 15 9 0 34 5 55 11 33 9 37 13 26 26
-11 12 -10 14 2 13 31 -5 58 1 71 14 12 11 20 10 55 -6 22 -10 51 -29 64 -41
13 -12 27 -21 31 -20 5 2 8 -1 8 -7 0 -11 63 -44 105 -55 17 -4 62 -7 100 -6
43 1 80 -4 97 -13 26 -14 27 -14 17 11 -5 14 -19 37 -30 52 l-21 26 33 13 c45
19 99 9 126 -23 27 -30 29 -31 36 -3 9 32 -17 71 -71 109 l-50 34 34 23 c33
22 69 79 84 134 l8 27 -51 -33 c-53 -34 -76 -44 -124 -52 l-28 -5 21 23 c31
35 51 71 62 110 l10 36 -32 -10 c-119 -37 -205 -44 -256 -20 -35 17 -81 75
-99 125 -10 26 -8 28 42 53 61 31 117 71 117 85 0 5 -21 9 -47 9 l-48 1 25 19
c14 10 37 29 52 40 42 33 34 40 -34 34 -63 -6 -63 -6 -33 10 33 18 67 54 61
65 -2 3 -32 5 -66 5 l-62 -1 32 25 c40 31 27 42 -55 42 -59 0 -59 0 -35 17 55
38 48 53 -26 53 -30 0 -54 5 -54 10 0 6 5 10 10 10 6 0 10 9 10 19 0 14 -9 21
-38 26 -36 6 -39 9 -55 64 -9 31 -26 100 -38 152 -27 124 -26 120 -34 176 -4
26 -9 59 -11 73 -10 66 -15 167 -19 415 -3 149 -7 286 -9 305 -2 19 -7 71 -10
115 -7 85 -10 108 -25 220 -17 119 -22 147 -41 232 -17 78 -17 85 -1 145 15
54 19 124 8 135 -2 2 -17 -7 -32 -19 -27 -21 -28 -21 -21 -3 26 62 40 105 35
110 -4 3 -18 1 -32 -4 l-26 -10 15 41 c13 38 19 78 10 78 -2 0 -23 -7 -47 -15
-24 -9 -73 -16 -109 -17 -58 -1 -72 3 -128 35 -196 113 -486 206 -727 233 -27
3 -61 8 -75 10 -31 6 -465 15 -471 10z m995 -3819 c-1 -9 5 -18 12 -21 8 -3
14 0 15 7 1 7 4 2 7 -11 4 -13 12 -24 17 -24 6 0 16 -10 24 -21 13 -18 12 -22
-4 -33 -10 -8 -14 -14 -9 -14 6 0 14 3 18 7 9 9 36 13 36 5 0 -4 12 -20 27
-36 21 -23 27 -40 28 -78 1 -26 -3 -48 -7 -48 -5 0 -6 -4 -3 -10 3 -6 -1 -7
-10 -4 -10 4 -15 2 -13 -7 2 -7 -5 -15 -14 -17 -10 -2 -18 2 -18 8 0 6 5 8 10
5 6 -3 10 -1 10 4 0 14 -13 14 -28 -1 -6 -6 -15 -8 -19 -4 -10 10 26 31 52 31
11 0 20 7 20 15 0 8 5 18 10 22 6 5 6 8 -1 8 -6 0 -17 -7 -24 -15 -7 -8 -17
-15 -23 -15 -5 0 -2 9 8 20 15 16 15 22 5 35 -7 8 -19 15 -26 15 -8 0 -14 5
-14 10 0 6 -5 10 -11 10 -8 0 -8 -5 1 -15 7 -8 19 -15 27 -15 8 0 12 -4 8 -10
-3 -5 -13 -6 -23 -3 -13 4 -13 2 3 -10 11 -8 17 -18 13 -22 -7 -7 -21 3 -65
45 -23 23 -24 23 -14 3 6 -12 8 -23 3 -26 -4 -2 -2 -3 5 -1 15 3 75 -41 66
-49 -3 -4 -15 1 -26 10 -11 10 -17 12 -13 6 4 -7 2 -13 -3 -13 -6 0 -11 7 -11
15 0 8 -4 15 -10 15 -5 0 -7 -6 -4 -13 3 -8 -2 -14 -11 -14 -9 0 -14 6 -11 13
3 8 0 11 -10 7 -11 -4 -12 -9 -3 -19 9 -11 9 -14 0 -14 -22 0 -24 31 -2 51 25
23 27 31 6 23 -8 -3 -20 -19 -27 -35 -16 -35 -18 -35 -47 -5 -22 23 -51 25
-51 4 0 -7 5 -6 14 1 11 9 14 6 14 -14 0 -22 -3 -24 -16 -13 -12 10 -14 10 -8
1 4 -7 2 -21 -3 -30 -12 -21 -12 -20 -15 31 -1 25 3 40 12 44 11 4 11 6 0 13
-7 5 -20 8 -28 8 -10 0 -8 -3 5 -9 18 -7 19 -8 3 -15 -10 -4 -18 -11 -18 -17
0 -5 5 -6 10 -3 6 3 10 2 10 -4 0 -12 -19 -25 -27 -17 -3 3 -5 16 -5 29 0 20
-5 24 -24 23 l-24 -1 22 -16 c22 -17 20 -49 -3 -49 -9 0 -9 3 0 14 9 10 8 15
-4 20 -8 3 -22 3 -30 0 -12 -5 -13 -10 -4 -20 9 -11 9 -14 0 -14 -21 0 -24 30
-5 45 17 13 17 16 4 25 -19 12 -37 13 -44 1 -4 -5 2 -7 13 -4 10 3 22 -1 27
-8 5 -8 3 -11 -7 -7 -10 4 -15 -1 -16 -14 -3 -28 -10 -33 -28 -18 -12 10 -18
8 -34 -11 l-18 -23 0 27 c0 14 2 26 6 25 19 -2 31 3 26 12 -3 6 -1 10 6 10 7
0 9 3 5 7 -4 5 -14 -1 -22 -12 -8 -11 -18 -20 -22 -20 -4 0 -7 -13 -8 -30 -2
-48 -3 -50 -29 -51 -21 -2 -24 1 -14 12 6 8 15 11 20 8 5 -3 9 -1 9 3 0 5 -9
14 -21 21 -12 7 -18 16 -15 19 3 3 12 0 21 -7 10 -8 15 -9 15 -1 0 6 -5 11
-10 11 -6 0 -2 10 10 22 24 26 25 32 3 49 -15 13 -15 12 -5 -8 11 -19 8 -25
-20 -47 -18 -14 -35 -23 -38 -20 -3 3 8 16 25 29 16 13 26 27 22 31 -4 4 -7 2
-7 -4 0 -9 -5 -9 -19 0 -11 7 -18 15 -15 19 2 4 -1 11 -8 15 -7 4 -10 4 -6 -1
4 -4 3 -14 -3 -21 -6 -8 -7 -19 -2 -26 12 -19 11 -59 -2 -55 -5 2 -10 12 -10
23 0 23 -24 68 -32 60 -4 -3 2 -15 12 -26 10 -11 16 -23 13 -26 -3 -3 -15 7
-27 22 -11 15 -21 23 -21 18 0 -5 14 -25 30 -44 42 -49 37 -63 -5 -17 -20 20
-38 37 -42 37 -3 0 2 -9 12 -20 10 -11 14 -20 8 -20 -5 0 -17 8 -26 18 -13 14
-14 21 -5 30 9 9 9 15 0 24 -7 7 -12 8 -12 3 0 -6 -5 -3 -11 5 -9 13 -10 13
-6 0 2 -8 10 -14 16 -12 16 3 14 -13 -4 -28 -8 -7 -15 -18 -15 -24 0 -6 5 -4
10 4 9 14 14 7 11 -13 -2 -13 19 -47 30 -47 6 0 3 7 -5 16 -9 8 -16 21 -16 27
0 7 6 4 14 -5 10 -14 15 -15 25 -5 11 10 12 8 6 -10 -4 -15 -2 -23 5 -23 6 0
8 5 5 10 -3 6 -1 10 4 10 6 0 11 -4 11 -9 0 -18 33 -21 52 -5 10 10 21 15 24
12 3 -3 -7 -15 -21 -26 -15 -12 -24 -26 -20 -32 8 -13 -5 -13 -25 0 -13 9 -13
10 0 10 12 0 12 2 2 9 -8 4 -25 7 -40 5 -14 -1 -33 3 -42 9 -17 12 -20 17 -20
38 0 5 -4 8 -9 5 -5 -4 -11 -3 -14 1 -2 5 -3 3 -1 -3 1 -6 -11 -21 -27 -33
-24 -18 -33 -20 -45 -11 -16 14 -20 45 -4 35 6 -3 10 -1 10 5 0 7 -6 10 -12 7
-7 -2 -13 -19 -14 -38 -1 -44 23 -92 42 -85 16 6 19 -9 4 -19 -10 -6 -54 32
-61 54 -3 7 -12 9 -21 6 -16 -6 -16 -10 -2 -36 8 -16 11 -29 7 -29 -5 0 -1 -5
7 -11 10 -7 11 -9 2 -7 -8 2 -13 7 -13 11 0 3 -6 19 -14 34 -8 14 -12 30 -10
34 3 4 -2 10 -11 13 -8 3 -13 10 -9 15 3 5 1 12 -5 16 -5 3 -10 12 -10 18 0 7
5 4 11 -5 5 -10 15 -18 22 -18 8 0 9 3 1 8 -6 4 -13 15 -17 25 -4 11 -12 15
-19 11 -9 -5 -8 -2 1 9 12 15 12 17 -3 11 -9 -3 -16 -1 -16 4 0 6 9 14 20 17
11 4 18 10 15 15 -3 5 5 10 17 12 13 2 22 9 20 16 -1 6 7 12 17 12 24 0 36 16
20 26 -7 4 -9 3 -5 -4 4 -6 -3 -12 -16 -14 -13 -2 -22 -9 -20 -16 1 -6 -7 -12
-18 -12 -11 0 -23 -7 -26 -15 -12 -29 -40 -15 -35 18 0 4 -4 7 -10 7 -5 0 -7
5 -4 10 3 6 1 10 -5 10 -6 0 2 11 18 25 17 14 34 25 38 25 5 0 0 -7 -10 -15
-16 -12 -17 -15 -4 -15 20 0 30 24 15 39 -8 8 -8 14 2 24 10 10 15 9 25 -5 11
-15 13 -15 24 3 12 18 13 18 49 1 25 -12 37 -14 40 -5 6 16 59 -1 55 -18 -3
-11 -1 -11 9 -2 6 6 18 9 25 6 8 -3 14 0 14 6 0 6 7 11 15 11 8 0 15 -4 15 -8
0 -4 12 -8 28 -7 15 0 26 6 25 12 -1 6 6 9 17 6 11 -3 20 -9 20 -13 0 -5 9 -6
20 -3 11 3 17 9 15 14 -3 4 17 8 44 7 48 0 76 -19 48 -32 -7 -3 -1 -3 12 0 17
5 21 3 16 -6 -6 -9 -4 -11 5 -5 10 6 10 11 -3 20 -19 13 -24 30 -6 20 6 -4 9
0 7 11 -2 14 2 18 17 16 11 -2 25 -9 30 -15 17 -21 32 -17 28 6 -4 18 0 23 21
25 19 1 26 -3 27 -16 1 -16 2 -16 6 1 5 20 14 21 33 5 8 -7 6 -3 -5 10 l-19
23 29 -6 c17 -4 35 -8 42 -10 14 -4 26 22 17 37 -4 6 -1 8 7 6 8 -3 13 -12 13
-21z m-414 -209 c0 -13 -23 -5 -28 10 -2 7 2 10 12 6 9 -3 16 -11 16 -16z
m540 2 c0 -5 -5 -10 -11 -10 -5 0 -7 5 -4 10 3 6 8 10 11 10 2 0 4 -4 4 -10z
m310 -1 c0 -6 -7 -9 -15 -6 -8 4 -17 1 -21 -5 -4 -6 -3 -8 3 -5 5 3 9 -3 8
-15 -1 -11 -10 -25 -21 -31 -17 -10 -18 -9 -4 8 13 16 13 19 -2 28 -15 10 -15
12 0 24 21 15 52 17 52 2z m-650 -39 c0 -5 -4 -10 -10 -10 -5 0 -10 5 -10 10
0 6 5 10 10 10 6 0 10 -4 10 -10z m150 -5 c7 -9 19 -14 27 -11 11 4 33 -28 33
-48 0 -3 -67 0 -82 3 -4 0 -4 9 -1 18 6 15 5 16 -9 3 -9 -8 -12 -17 -7 -18 5
-2 7 -8 4 -13 -4 -5 0 -6 8 -3 8 3 14 -2 14 -11 0 -10 -6 -14 -14 -10 -8 3
-18 5 -23 5 -13 0 -4 51 11 61 17 10 35 6 32 -8 -1 -6 9 -10 22 -10 14 0 25 4
25 9 0 5 -4 7 -9 3 -5 -3 -22 6 -38 20 -15 13 -23 25 -17 25 6 0 17 -7 24 -15z
m210 5 c0 -5 -5 -10 -11 -10 -5 0 -7 5 -4 10 3 6 8 10 11 10 2 0 4 -4 4 -10z
m240 0 c0 -5 -4 -10 -10 -10 -5 0 -10 5 -10 10 0 6 5 10 10 10 6 0 10 -4 10
-10z m-661 -16 c11 7 34 -28 24 -37 -3 -4 0 -13 7 -22 7 -8 8 -15 2 -15 -15 0
-33 26 -29 41 2 8 2 10 -1 6 -2 -4 -9 -1 -16 8 -7 10 -18 14 -29 9 -19 -7 -23
-24 -6 -24 8 0 8 -5 -1 -15 -7 -8 -16 -12 -21 -9 -5 3 -8 0 -7 -7 2 -6 -3 -14
-10 -16 -10 -4 -9 3 3 28 27 53 46 71 61 58 7 -6 18 -8 23 -5z m-149 -19 c-7
-8 -17 -15 -23 -15 -5 0 -2 9 8 20 21 23 35 19 15 -5z m280 13 c0 -4 -4 -8
-10 -8 -5 0 -10 -5 -10 -11 0 -5 4 -8 9 -4 24 14 36 -55 15 -81 -15 -19 -16
-19 -9 1 12 37 14 56 4 50 -5 -4 -12 1 -15 9 -3 9 -10 13 -16 10 -5 -3 -18 2
-29 12 -19 17 -20 17 -13 -1 5 -13 4 -16 -4 -11 -7 4 -12 3 -12 -3 0 -5 5 -12
10 -14 6 -3 5 -4 -2 -3 -7 2 -13 14 -13 27 0 18 6 24 22 24 12 0 24 2 27 5 8
9 46 7 46 -2z m161 -7 c-8 -5 -9 -11 -3 -15 6 -3 12 -1 14 6 3 7 7 8 11 2 3
-5 2 -15 -2 -22 -5 -9 -12 -9 -26 2 -17 12 -17 16 -6 30 8 9 16 14 20 11 3 -3
-1 -10 -8 -14z m54 -2 c-4 -11 1 -22 12 -28 17 -10 17 -10 1 -11 -29 0 -32 -1
-45 -12 -7 -5 -17 -7 -23 -3 -6 4 -9 1 -8 -6 2 -6 -3 -14 -11 -17 -8 -2 -11 0
-7 6 3 6 1 14 -5 18 -7 4 -9 3 -6 -2 3 -6 3 -15 -1 -21 -9 -15 -102 -63 -102
-53 0 12 26 30 34 23 4 -4 9 3 13 15 3 12 10 22 15 22 6 0 7 -7 4 -16 -6 -14
-4 -15 9 -4 15 12 14 15 -5 25 -19 10 -20 13 -6 18 9 4 16 1 16 -5 0 -7 4 -7
13 -1 6 6 25 10 40 9 30 -2 57 27 37 39 -16 10 -11 21 10 21 14 0 18 -5 15
-17z m-636 -6 c-3 -20 2 -34 10 -28 6 3 15 -3 20 -14 15 -26 14 -31 -4 -25 -8
4 -12 10 -9 15 3 5 -1 7 -8 4 -13 -5 -40 39 -30 50 8 8 22 6 21 -2z m281 -22
c6 -16 18 -32 27 -35 19 -8 55 12 47 26 -8 13 36 0 54 -16 10 -10 9 -16 -4
-31 -8 -11 -13 -14 -9 -7 3 7 -1 15 -10 18 -13 6 -14 8 -3 15 23 15 -6 9 -32
-7 l-25 -15 25 7 c21 6 23 5 13 -8 -10 -11 -10 -17 0 -28 10 -10 9 -12 -5 -7
-11 4 -26 -2 -39 -16 -20 -22 -21 -22 -35 -3 -19 27 -16 29 51 35 6 1 3 5 -5
10 -8 6 -18 7 -24 4 -5 -3 -6 -1 -2 5 4 7 2 12 -3 12 -6 0 -11 -7 -11 -15 0
-8 -5 -15 -11 -15 -6 0 -8 12 -6 29 5 28 4 29 -20 18 -14 -6 -20 -13 -14 -15
8 -3 8 -9 1 -23 -15 -28 -33 -25 -20 4 11 21 11 22 -5 2 -14 -17 -17 -18 -25
-5 -6 9 -10 10 -10 3 0 -7 -10 -2 -23 10 -13 12 -21 26 -19 31 3 4 7 4 11 -1
3 -6 16 -15 29 -22 20 -11 27 -9 58 18 19 17 30 31 24 31 -5 0 -10 5 -10 10 0
21 18 9 30 -19z m-302 -11 c3 -7 0 -10 -6 -6 -12 7 -52 -14 -52 -27 0 -4 10
-1 21 7 20 13 26 13 59 -4 29 -15 40 -16 49 -7 10 9 16 8 27 -7 16 -23 13 -29
-10 -20 -9 3 -13 11 -9 17 3 6 1 7 -5 3 -6 -4 -9 -13 -5 -22 3 -8 8 -13 11
-10 2 3 14 1 25 -5 12 -7 17 -7 13 -1 -3 5 1 13 9 16 11 4 15 0 13 -12 -4 -24
-20 -33 -35 -20 -7 6 -13 7 -13 2 0 -4 -15 7 -33 24 -26 26 -33 29 -32 15 0
-10 4 -23 7 -28 4 -6 -10 -10 -35 -11 -31 0 -42 -4 -41 -15 1 -8 -7 -16 -17
-16 -11 -1 -16 3 -13 12 3 7 0 16 -7 21 -7 4 -10 3 -5 -4 3 -6 -1 -18 -10 -26
-18 -18 -34 -21 -34 -5 0 5 5 7 10 4 18 -11 14 53 -4 66 -5 4 -6 13 -4 20 4 9
10 5 18 -12 14 -30 56 -54 65 -38 4 5 10 7 14 4 5 -2 7 7 5 21 -1 16 2 24 9
21 7 -2 11 -11 9 -20 -1 -8 1 -18 6 -21 4 -2 9 6 10 19 2 30 -25 41 -50 19
-10 -10 -19 -15 -21 -13 -32 54 -33 62 -8 54 10 -3 24 1 31 10 15 18 32 15 38
-5z m106 -12 c-3 -5 2 -11 10 -14 18 -7 22 -34 6 -34 -5 0 -10 7 -10 15 0 8
-11 17 -25 21 -28 7 -26 20 4 20 11 0 17 -4 15 -8z m106 2 c0 -5 -4 -10 -10
-10 -5 0 -10 5 -10 10 0 6 5 10 10 10 6 0 10 -4 10 -10z m-34 -32 c10 -16 14
-58 5 -58 -16 0 -20 14 -9 29 10 13 10 14 -2 4 -22 -20 -20 -40 4 -38 28 2 41
-6 26 -15 -8 -5 -7 -9 5 -13 9 -4 13 -3 10 3 -3 6 -2 10 4 10 15 0 23 -18 11
-25 -6 -4 -22 1 -36 10 -18 11 -29 13 -38 6 -6 -5 -21 -8 -31 -6 -11 2 -22 4
-25 4 -3 1 2 5 10 11 8 5 19 5 25 0 8 -6 11 4 10 33 -1 23 0 45 2 50 6 11 21
9 29 -5z m323 -9 c3 -12 1 -12 -14 1 -10 8 -16 10 -12 4 4 -7 0 -17 -8 -24 -8
-7 -15 -21 -15 -31 0 -21 -1 -22 -24 -13 -8 3 -12 12 -10 19 3 7 -4 19 -16 25
-20 11 -19 30 1 30 6 0 8 -4 4 -9 -3 -6 4 -15 16 -21 23 -13 22 -14 38 18 13
25 32 25 40 1z m-230 -24 c-15 -9 -17 -13 -7 -23 7 -7 17 -12 23 -12 5 0 3 4
-5 10 -8 5 -11 12 -7 16 10 11 19 -2 22 -31 4 -30 -9 -32 -29 -4 -10 14 -20
19 -34 15 -11 -4 -24 0 -32 9 -9 11 -9 15 -1 15 7 0 9 5 5 11 -4 7 2 6 17 -1
20 -11 25 -10 38 7 11 14 18 17 23 9 4 -6 -2 -15 -13 -21z m91 -26 c-12 -9
-12 -10 3 -5 25 8 65 -13 63 -33 -2 -9 -10 -17 -19 -19 -19 -4 -22 9 -7 24 6
6 3 10 -10 11 -11 1 -22 -2 -25 -8 -10 -15 -22 -10 -22 9 0 20 17 45 26 37 3
-3 -1 -11 -9 -16z m50 11 c0 -5 -4 -10 -10 -10 -5 0 -10 5 -10 10 0 6 5 10 10
10 6 0 10 -4 10 -10z m-74 -52 c-1 -13 -7 -23 -16 -23 -9 0 -15 10 -16 23 -1
15 4 22 16 22 12 0 17 -7 16 -22z"/>
<path d="M3279 960 c-3 -20 -4 -25 -13 -40 -7 -12 -6 -13 4 -3 13 12 25 53 15
53 -3 0 -6 -4 -6 -10z"/>
<path d="M3336 953 c-6 -14 -5 -15 5 -6 7 7 10 15 7 18 -3 3 -9 -2 -12 -12z"/>
<path d="M3376 937 c3 -10 9 -15 12 -12 3 3 0 11 -7 18 -10 9 -11 8 -5 -6z"/>
<path d="M2646 917 c3 -10 9 -15 12 -12 3 3 0 11 -7 18 -10 9 -11 8 -5 -6z"/>
<path d="M3115 920 c3 -5 8 -10 11 -10 2 0 4 5 4 10 0 6 -5 10 -11 10 -5 0 -7
-4 -4 -10z"/>
<path d="M3230 925 c0 -5 5 -17 10 -25 5 -8 10 -10 10 -5 0 6 -5 17 -10 25 -5
8 -10 11 -10 5z"/>
<path d="M3295 919 c-4 -6 -4 -13 -1 -16 3 -4 6 -1 6 6 0 7 5 9 10 6 6 -4 7
-11 4 -17 -4 -7 -2 -8 5 -4 9 6 9 11 0 22 -14 17 -16 17 -24 3z"/>
<path d="M2716 911 c-3 -5 1 -11 9 -14 9 -4 12 -1 8 9 -6 16 -10 17 -17 5z"/>
<path d="M2634 897 c5 -15 2 -17 -17 -12 -20 5 -20 5 -4 -6 23 -14 40 0 26 21
-9 12 -10 12 -5 -3z"/>
<path d="M2670 900 c0 -5 7 -7 15 -4 8 4 15 8 15 10 0 2 -7 4 -15 4 -8 0 -15
-4 -15 -10z"/>
<path d="M3200 900 c-8 -5 -10 -10 -5 -10 6 0 3 -5 -5 -10 -10 -7 -11 -10 -2
-10 7 0 15 7 18 15 4 8 11 12 17 8 6 -3 7 -1 3 5 -9 14 -7 14 -26 2z"/>
<path d="M3348 903 c7 -3 16 -2 19 1 4 3 -2 6 -13 5 -11 0 -14 -3 -6 -6z"/>
<path d="M2891 893 c-1 -7 8 -17 19 -23 16 -9 18 -8 14 5 -3 8 -10 13 -14 10
-5 -3 -11 1 -13 7 -4 10 -6 10 -6 1z"/>
<path d="M3135 884 c5 -17 1 -21 -17 -20 -15 1 -23 -5 -24 -17 -1 -12 -1 -13
3 -2 2 8 8 13 13 10 5 -3 6 -13 3 -23 -3 -9 6 -2 21 17 28 37 32 46 17 37 -5
-4 -12 0 -15 6 -3 7 -3 3 -1 -8z"/>
<path d="M3259 890 c-5 -29 -2 -33 19 -35 27 -2 39 12 23 28 -9 9 -11 8 -6 -3
4 -11 -1 -16 -15 -16 -15 0 -18 5 -14 18 3 10 3 18 0 18 -3 0 -7 -4 -7 -10z"/>
<path d="M2680 880 c-8 -5 -10 -10 -5 -10 6 0 17 5 25 10 8 5 11 10 5 10 -5 0
-17 -5 -25 -10z"/>
<path d="M2810 886 c0 -2 7 -7 16 -10 8 -3 12 -2 9 4 -6 10 -25 14 -25 6z"/>
<path d="M2873 872 c0 -12 5 -22 9 -22 11 0 10 12 -2 30 -7 12 -9 10 -7 -8z"/>
<path d="M2963 883 c-7 -2 -13 -9 -13 -15 0 -7 5 -7 13 1 8 6 17 8 20 4 4 -3
7 -1 7 5 0 13 -7 14 -27 5z"/>
<path d="M3054 882 c4 -3 14 -7 22 -8 9 -1 13 0 10 4 -4 3 -14 7 -22 8 -9 1
-13 0 -10 -4z"/>
<path d="M3356 878 c3 -4 11 -5 19 -1 21 7 19 12 -4 10 -11 0 -18 -5 -15 -9z"/>
<path d="M3454 878 c7 -30 19 -48 34 -48 13 0 11 4 -6 16 -12 8 -20 19 -17 24
3 5 1 11 -4 14 -5 4 -8 0 -7 -6z"/>
<path d="M2536 863 c-3 -3 0 -15 6 -27 6 -11 10 -22 9 -24 -2 -2 1 -7 5 -10 4
-4 4 -2 0 5 -3 7 2 14 14 18 11 3 20 13 20 21 0 8 5 12 10 9 6 -3 10 -1 10 4
0 18 -17 12 -33 -11 -8 -13 -19 -19 -23 -15 -5 4 -3 12 5 16 10 7 10 9 -2 14
-8 3 -18 3 -21 0z"/>
<path d="M2747 853 c4 -11 2 -14 -5 -9 -8 5 -10 2 -6 -9 4 -9 7 -15 8 -13 1 2
7 10 14 19 10 14 10 18 -2 22 -11 4 -13 1 -9 -10z"/>
<path d="M2824 856 c11 -9 24 -16 30 -16 12 0 7 5 -24 19 -24 11 -24 11 -6 -3z"/>
<path d="M3015 860 c-3 -5 -4 -10 0 -10 3 0 1 -10 -5 -22 -11 -22 -10 -22 4
-4 9 10 13 23 10 27 -6 10 8 12 30 3 9 -3 13 -11 9 -17 -4 -6 -1 -7 7 -2 10 6
9 11 -5 22 -22 15 -41 17 -50 3z"/>
<path d="M3157 857 c-3 -8 -2 -20 3 -26 5 -9 8 -4 8 13 0 29 -3 32 -11 13z"/>
<path d="M3197 856 c-9 -7 -17 -17 -17 -21 0 -5 10 0 22 11 16 14 20 15 16 4
-7 -20 78 -85 86 -65 3 10 0 12 -11 8 -11 -4 -14 -3 -9 6 4 6 4 10 -1 9 -15
-4 -53 22 -53 37 0 21 -13 25 -33 11z"/>
<path d="M3334 855 c-4 -8 -10 -13 -14 -10 -5 3 -12 0 -16 -6 -4 -8 -3 -9 4
-5 7 4 12 3 12 -3 0 -5 -6 -12 -12 -14 -10 -4 -10 -6 0 -6 7 -1 15 6 18 14 4
8 10 12 15 9 5 -3 6 3 2 12 -5 13 -3 15 7 9 9 -5 11 -4 6 3 -10 16 -15 15 -22
-3z"/>
<path d="M3375 860 c-2 -3 5 -16 16 -29 10 -13 19 -18 19 -13 0 6 -5 14 -12
18 -8 5 -6 11 7 20 16 12 16 13 -5 11 -12 -1 -23 -4 -25 -7z"/>
<path d="M2991 844 c0 -11 3 -14 6 -6 3 7 2 16 -1 19 -3 4 -6 -2 -5 -13z"/>
<path d="M2710 832 c6 -13 14 -21 18 -18 3 4 -2 14 -12 24 -18 16 -18 16 -6
-6z"/>
<path d="M2807 839 c7 -7 15 -10 18 -7 3 3 -2 9 -12 12 -14 6 -15 5 -6 -5z"/>
<path d="M2930 840 c0 -5 5 -10 10 -10 6 0 10 5 10 10 0 6 -4 10 -10 10 -5 0
-10 -4 -10 -10z"/>
<path d="M2670 831 c0 -7 -5 -9 -12 -5 -7 5 -8 3 -3 -5 5 -9 10 -10 18 -2 6 6
8 14 4 18 -4 3 -7 1 -7 -6z"/>
<path d="M3035 830 c-3 -5 -1 -10 4 -10 6 0 11 5 11 10 0 6 -2 10 -4 10 -3 0
-8 -4 -11 -10z"/>
<path d="M3270 830 c0 -5 5 -10 10 -10 6 0 10 5 10 10 0 6 -4 10 -10 10 -5 0
-10 -4 -10 -10z"/>
<path d="M3135 820 c3 -5 8 -10 11 -10 2 0 4 5 4 10 0 6 -5 10 -11 10 -5 0 -7
-4 -4 -10z"/>
<path d="M2620 800 c-12 -7 -10 -9 8 -7 12 0 22 5 22 9 0 11 -12 10 -30 -2z"/>
<path d="M2685 800 c-3 -6 1 -7 9 -4 18 7 21 14 7 14 -6 0 -13 -4 -16 -10z"/>
<path d="M2747 804 c-3 -3 -3 -13 0 -21 5 -12 7 -12 14 -1 15 23 4 40 -14 22z"/>
<path d="M2697 784 c-3 -4 -2 -15 4 -26 7 -14 7 -23 -2 -34 -8 -10 -8 -14 0
-14 6 0 11 5 11 10 0 6 7 10 15 10 8 0 15 5 15 11 0 5 -4 8 -9 4 -6 -3 -15 3
-20 14 -9 16 -7 20 7 24 14 4 14 5 1 6 -9 0 -19 -2 -22 -5z"/>
<path d="M3045 780 c3 -5 8 -10 11 -10 2 0 4 5 4 10 0 6 -5 10 -11 10 -5 0 -7
-4 -4 -10z"/>
<path d="M2595 760 c4 -22 35 -71 35 -55 0 6 -7 18 -15 28 -7 11 -11 25 -8 33
3 8 0 14 -5 14 -6 0 -9 -9 -7 -20z"/>
<path d="M2625 751 c-6 -11 13 -26 22 -17 4 3 0 6 -8 7 -8 0 -6 4 6 9 16 7 17
9 3 9 -9 1 -19 -3 -23 -8z"/>
<path d="M2636 693 c-6 -14 -5 -15 5 -6 7 7 10 15 7 18 -3 3 -9 -2 -12 -12z"/>
<path d="M2590 686 c0 -2 7 -6 15 -10 8 -3 15 -1 15 4 0 6 -7 10 -15 10 -8 0
-15 -2 -15 -4z"/>
<path d="M3155 720 c3 -5 8 -10 11 -10 2 0 4 5 4 10 0 6 -5 10 -11 10 -5 0 -7
-4 -4 -10z"/>
<path d="M3070 599 c0 -5 5 -7 10 -4 6 3 10 8 10 11 0 2 -4 4 -10 4 -5 0 -10
-5 -10 -11z"/>
<path d="M4096 1113 c-6 -14 -5 -15 5 -6 7 7 10 15 7 18 -3 3 -9 -2 -12 -12z"/>
<path d="M3750 960 c0 -5 5 -10 11 -10 5 0 7 5 4 10 -3 6 -8 10 -11 10 -2 0
-4 -4 -4 -10z"/>
<path d="M3786 958 c3 -5 10 -6 15 -3 13 9 11 12 -6 12 -8 0 -12 -4 -9 -9z"/>
<path d="M3834 928 c-19 -23 -19 -23 2 -5 11 9 24 14 29 10 4 -5 5 -2 1 5 -9
16 -10 16 -32 -10z"/>
<path d="M3895 939 c-3 -4 2 -6 10 -5 21 3 28 13 10 13 -9 0 -18 -4 -20 -8z"/>
<path d="M2350 919 c0 -5 5 -7 10 -4 6 3 10 8 10 11 0 2 -4 4 -10 4 -5 0 -10
-5 -10 -11z"/>
<path d="M3750 926 c0 -2 7 -7 16 -10 8 -3 12 -2 9 4 -6 10 -25 14 -25 6z"/>
<path d="M3960 900 c-12 -7 -10 -9 7 -7 12 0 19 5 17 9 -6 10 -6 10 -24 -2z"/>
<path d="M3777 890 c7 -8 20 -15 29 -16 9 -1 13 1 9 4 -4 4 -10 7 -13 7 -4 0
-14 4 -22 9 -12 7 -13 6 -3 -4z"/>
<path d="M3715 880 c-3 -5 -1 -10 4 -10 6 0 11 5 11 10 0 6 -2 10 -4 10 -3 0
-8 -4 -11 -10z"/>
<path d="M3870 880 c0 -5 5 -10 11 -10 5 0 7 5 4 10 -3 6 -8 10 -11 10 -2 0
-4 -4 -4 -10z"/>
<path d="M3750 863 c0 -13 30 -39 30 -27 0 5 5 2 10 -6 5 -8 10 -10 10 -4 0 5
-7 19 -15 30 -15 19 -15 19 -9 -1 6 -20 5 -20 -10 -1 -9 11 -16 15 -16 9z"/>
<path d="M3830 859 c0 -15 18 -19 23 -6 3 8 -1 14 -9 14 -8 0 -14 -4 -14 -8z"/>
<path d="M3813 850 c2 -8 0 -23 -5 -32 -5 -10 -6 -18 -4 -18 13 0 24 37 15 51
-9 12 -10 12 -6 -1z"/>
<path d="M3887 842 c-20 -22 -21 -32 -5 -32 6 0 8 3 5 7 -4 3 0 15 10 25 9 10
14 18 11 18 -3 0 -12 -8 -21 -18z"/>
<path d="M3955 850 c-4 -6 -10 -8 -15 -5 -4 3 -14 -3 -21 -13 -12 -15 -12 -16
2 -5 9 7 18 11 21 8 3 -3 11 1 18 10 7 8 10 15 7 15 -3 0 -9 -5 -12 -10z"/>
<path d="M4480 840 c-9 -6 -10 -10 -3 -10 6 0 15 5 18 10 8 12 4 12 -15 0z"/>
<path d="M3830 799 c0 -15 18 -19 23 -6 3 8 -1 14 -9 14 -8 0 -14 -4 -14 -8z"/>
<path d="M3895 770 c-4 -6 -11 -8 -16 -5 -5 4 -9 2 -9 -3 0 -5 8 -12 18 -14
12 -4 18 1 18 13 0 22 -2 23 -11 9z"/>
<path d="M3664 743 c2 -9 8 -18 15 -19 6 -1 7 0 1 3 -5 2 -8 9 -5 13 3 5 1 11
-4 14 -5 4 -8 -2 -7 -11z"/>
<path d="M3836 735 c-17 -13 -18 -15 -3 -15 9 0 17 5 17 11 0 5 5 7 12 3 7 -4
8 -3 4 4 -9 14 -7 15 -30 -3z"/>
<path d="M2230 730 c0 -5 5 -10 11 -10 5 0 7 5 4 10 -3 6 -8 10 -11 10 -2 0
-4 -4 -4 -10z"/>
<path d="M2445 721 c-3 -6 5 -15 17 -21 21 -10 21 -10 6 3 -10 8 -15 17 -11
20 3 4 4 7 0 7 -3 0 -8 -4 -12 -9z"/>
<path d="M3896 713 c-6 -14 -5 -15 5 -6 7 7 10 15 7 18 -3 3 -9 -2 -12 -12z"/>
<path d="M3920 721 c0 -5 7 -12 16 -15 14 -5 15 -4 4 9 -14 17 -20 19 -20 6z"/>
<path d="M4125 720 c-3 -6 1 -7 9 -4 18 7 21 14 7 14 -6 0 -13 -4 -16 -10z"/>
<path d="M3874 685 c0 -14 6 -27 13 -29 9 -4 9 3 1 25 -12 36 -16 37 -14 4z"/>
<path d="M3982 684 c10 -10 20 -16 22 -13 3 3 -5 11 -17 18 -21 13 -21 12 -5
-5z"/>
<path d="M2410 678 c0 -4 4 -8 9 -8 6 0 12 4 15 8 3 5 -1 9 -9 9 -8 0 -15 -4
-15 -9z"/>
<path d="M2450 680 c0 -5 5 -10 11 -10 5 0 7 5 4 10 -3 6 -8 10 -11 10 -2 0
-4 -4 -4 -10z"/>
<path d="M3795 680 c-13 -6 -15 -9 -5 -9 8 0 22 4 30 9 18 12 2 12 -25 0z"/>
<path d="M3819 668 c0 -2 -2 -14 -5 -28 -3 -18 -2 -21 5 -10 5 8 8 17 5 21 -2
4 4 10 13 12 17 4 17 5 1 6 -10 0 -18 0 -19 -1z"/>
<path d="M2461 657 c2 -2 20 -14 39 -26 l35 -23 -30 26 c-16 14 -34 26 -39 26
-5 0 -7 -1 -5 -3z"/>
<path d="M2370 640 c0 -5 5 -10 10 -10 6 0 10 5 10 10 0 6 -4 10 -10 10 -5 0
-10 -4 -10 -10z"/>
<path d="M3842 638 c-7 -7 -12 -17 -12 -22 0 -6 5 -3 11 7 6 9 14 15 20 12 5
-4 9 -1 9 4 0 14 -13 14 -28 -1z"/>
<path d="M3910 638 c0 -4 9 -7 20 -5 29 5 33 13 5 13 -14 0 -25 -4 -25 -8z"/>
<path d="M4106 642 c-3 -5 1 -9 9 -9 8 0 12 4 9 9 -3 4 -7 8 -9 8 -2 0 -6 -4
-9 -8z"/>
<path d="M2336 611 c-15 -17 -15 -19 -1 -25 9 -3 13 -2 10 4 -3 6 -3 15 1 21
4 8 9 7 15 -2 6 -10 9 -10 9 -2 0 21 -17 23 -34 4z"/>
<path d="M2395 620 c-3 -5 -3 -10 1 -10 4 0 -1 -7 -12 -16 -18 -14 -18 -15 4
-4 12 6 20 15 17 20 -3 4 1 11 7 13 9 4 10 6 1 6 -6 1 -15 -3 -18 -9z"/>
<path d="M3883 622 c-7 -4 -9 -13 -4 -21 6 -9 10 -7 14 8 3 12 4 21 4 21 -1 0
-7 -4 -14 -8z"/>
<path d="M2450 595 c0 -8 2 -15 4 -15 2 0 6 7 10 15 3 8 1 15 -4 15 -6 0 -10
-7 -10 -15z"/>
<path d="M3810 600 c0 -5 5 -10 11 -10 5 0 7 5 4 10 -3 6 -8 10 -11 10 -2 0
-4 -4 -4 -10z"/>
<path d="M3973 595 c0 -8 4 -12 9 -9 4 3 8 9 8 15 0 5 -4 9 -8 9 -5 0 -9 -7
-9 -15z"/>
<path d="M2477 593 c-12 -12 -7 -25 7 -20 8 3 17 1 20 -6 3 -8 5 -8 5 -1 1 15
-24 36 -32 27z"/>
<path d="M3446 585 c-14 -10 -15 -15 -6 -15 11 0 11 -3 2 -12 -15 -15 -15 -28
-1 -28 5 0 7 5 4 10 -3 6 -1 10 5 10 7 0 10 6 7 14 -3 7 0 19 6 25 16 16 6 13
-17 -4z"/>
<path d="M3639 577 c6 -8 8 -17 4 -20 -3 -4 -1 -7 5 -7 14 0 14 2 6 24 -3 9
-11 16 -16 16 -7 0 -6 -5 1 -13z"/>
<path d="M3798 573 c7 -3 16 -2 19 1 4 3 -2 6 -13 5 -11 0 -14 -3 -6 -6z"/>
<path d="M4033 565 c0 -8 4 -12 9 -9 5 3 6 10 3 15 -9 13 -12 11 -12 -6z"/>
<path d="M2404 559 c-3 -6 -1 -16 5 -22 9 -9 10 -7 5 7 -6 15 -4 17 6 11 9 -5
11 -4 6 3 -9 15 -13 15 -22 1z"/>
<path d="M2456 557 c3 -10 9 -15 12 -12 3 3 0 11 -7 18 -10 9 -11 8 -5 -6z"/>
<path d="M2319 558 c-5 -18 -6 -38 -1 -34 7 8 12 36 6 36 -2 0 -4 -1 -5 -2z"/>
<path d="M2520 550 c0 -5 -6 -9 -12 -7 -7 1 -14 -9 -15 -23 -2 -24 -2 -24 5
-2 4 13 11 23 17 22 5 -1 11 3 13 9 2 6 1 11 -2 11 -3 0 -6 -4 -6 -10z"/>
<path d="M2566 545 c4 -8 11 -15 16 -15 6 0 5 6 -2 15 -7 8 -14 15 -16 15 -2
0 -1 -7 2 -15z"/>
<path d="M2436 534 c-3 -9 -2 -22 2 -31 6 -10 9 -5 9 16 0 35 -2 38 -11 15z"/>
<path d="M2764 540 c-14 -14 -54 -21 -54 -9 0 5 -5 9 -11 9 -5 0 -8 -4 -5 -9
4 -5 0 -12 -6 -15 -7 -3 -1 -3 15 -1 15 2 27 -1 27 -6 0 -5 5 -9 11 -9 5 0 7
5 4 10 -3 6 -1 10 5 10 6 0 13 -6 16 -14 3 -8 13 -17 22 -21 12 -4 10 1 -6 18
-17 18 -20 26 -10 30 7 2 10 7 7 10 -3 4 -10 2 -15 -3z"/>
<path d="M3876 533 c-6 -14 -5 -15 5 -6 7 7 10 15 7 18 -3 3 -9 -2 -12 -12z"/>
<path d="M2541 531 c-11 -7 -9 -10 8 -16 13 -4 25 -4 28 -1 4 3 -1 6 -11 6 -9
0 -14 5 -11 10 8 12 4 12 -14 1z"/>
<path d="M2647 519 c-23 -26 -19 -32 7 -13 11 8 16 14 10 14 -5 0 -2 5 6 10 8
5 10 10 5 10 -6 0 -19 -9 -28 -21z"/>
<path d="M3635 530 c-3 -5 -2 -18 4 -27 7 -14 9 -12 8 10 -2 30 -3 31 -12 17z"/>
<path d="M3661 524 c0 -11 3 -14 6 -6 3 7 2 16 -1 19 -3 4 -6 -2 -5 -13z"/>
<path d="M3690 531 c0 -13 39 -35 48 -27 3 3 0 6 -6 6 -6 0 -18 7 -26 16 -9 8
-16 11 -16 5z"/>
<path d="M2858 518 c7 -7 16 -7 28 0 14 8 13 10 -10 10 -18 0 -24 -4 -18 -10z"/>
<path d="M2915 508 c3 -20 -20 -42 -35 -33 -5 3 -10 1 -10 -4 0 -14 27 -14 35
-1 4 6 11 7 17 4 7 -4 8 -2 4 4 -4 7 -2 12 3 12 6 0 11 5 11 11 0 5 -4 8 -9 4
-5 -3 -11 0 -14 7 -2 7 -3 5 -2 -4z"/>
<path d="M3234 515 c-12 -8 -25 -11 -29 -7 -5 4 -5 1 -1 -5 7 -13 -2 -16 -34
-14 -10 0 -11 -1 -2 -5 13 -6 17 -25 5 -22 -5 1 -21 -5 -38 -14 -26 -14 -27
-17 -8 -15 12 1 25 7 28 15 3 7 9 11 14 7 6 -3 14 3 20 12 6 10 11 14 11 9 0
-5 9 1 20 14 11 13 23 20 27 17 3 -4 -4 -18 -16 -31 -13 -14 -21 -32 -18 -43
4 -14 5 -13 6 5 1 13 5 20 11 17 6 -4 8 -16 5 -28 -5 -20 -5 -20 5 -4 8 13 9
22 1 31 -8 10 -7 16 3 25 8 7 14 21 13 32 -1 10 -2 19 -2 19 0 0 -10 -7 -21
-15z"/>
<path d="M3270 518 c0 -4 11 -7 24 -6 14 1 23 6 20 9 -6 10 -44 7 -44 -3z"/>
<path d="M2950 509 c0 -5 4 -8 9 -5 5 3 15 -2 22 -11 12 -14 11 -15 -11 -9
-20 6 -22 5 -8 -4 9 -5 24 -7 32 -4 14 5 13 9 -5 25 -25 21 -39 24 -39 8z"/>
<path d="M2361 496 c-9 -11 -9 -16 1 -22 7 -4 10 -4 6 1 -4 4 -3 14 3 22 6 7
9 13 6 13 -2 0 -10 -6 -16 -14z"/>
<path d="M2510 501 c0 -6 7 -8 15 -4 10 3 15 1 13 -7 -2 -7 4 -15 12 -17 12
-4 12 -3 2 5 -8 5 -13 13 -12 18 0 5 -6 10 -14 12 -9 2 -16 -1 -16 -7z"/>
<path d="M2880 500 c-13 -8 -12 -10 3 -10 9 0 17 5 17 10 0 12 -1 12 -20 0z"/>
<path d="M3140 499 c0 -5 5 -7 10 -4 6 3 10 8 10 11 0 2 -4 4 -10 4 -5 0 -10
-5 -10 -11z"/>
<path d="M3970 500 c0 -5 5 -10 11 -10 5 0 7 5 4 10 -3 6 -8 10 -11 10 -2 0
-4 -4 -4 -10z"/>
<path d="M2226 484 c-5 -14 -4 -15 9 -4 17 14 19 20 6 20 -5 0 -12 -7 -15 -16z"/>
<path d="M2576 485 c-3 -8 -1 -15 4 -15 6 0 10 7 10 15 0 8 -2 15 -4 15 -2 0
-6 -7 -10 -15z"/>
<path d="M2675 480 c4 -14 2 -20 -7 -18 -7 2 -13 -8 -15 -22 -2 -24 -2 -24 5
-2 4 13 12 23 17 22 6 0 11 9 11 20 1 11 -3 20 -8 20 -5 0 -6 -9 -3 -20z"/>
<path d="M2700 494 c0 -19 27 -47 39 -40 6 4 8 12 5 18 -4 6 2 8 17 4 18 -5
20 -5 8 3 -8 5 -24 8 -35 7 -10 -2 -22 2 -26 8 -5 7 -8 7 -8 0z m35 -24 c3 -5
1 -10 -4 -10 -6 0 -11 5 -11 10 0 6 2 10 4 10 3 0 8 -4 11 -10z"/>
<path d="M3082 479 c-19 -30 -11 -32 11 -3 10 13 14 24 10 24 -5 0 -14 -9 -21
-21z"/>
<path d="M3121 483 c-1 -13 -6 -22 -12 -20 -6 1 -13 -4 -14 -11 -2 -7 -1 -8 2
-2 2 5 9 8 14 4 11 -7 23 21 16 38 -3 7 -6 3 -6 -9z"/>
<path d="M3262 480 c-13 -21 -5 -30 24 -26 19 3 34 46 16 46 -6 0 -8 -8 -5
-18 3 -13 -2 -18 -17 -19 -18 -2 -19 1 -9 13 6 8 10 16 8 19 -3 2 -10 -4 -17
-15z"/>
<path d="M3656 483 c-6 -14 -5 -15 5 -6 7 7 10 15 7 18 -3 3 -9 -2 -12 -12z"/>
<path d="M2484 479 c-4 -7 -3 -9 4 -5 5 3 13 0 15 -6 4 -9 6 -10 6 -1 1 17
-16 25 -25 12z"/>
<path d="M3355 480 c27 -12 43 -12 25 0 -8 5 -22 9 -30 9 -10 0 -8 -3 5 -9z"/>
<path d="M3405 480 c-3 -6 1 -7 9 -4 18 7 21 14 7 14 -6 0 -13 -4 -16 -10z"/>
<path d="M3677 476 c-3 -8 0 -17 7 -19 10 -4 12 1 9 14 -6 23 -9 24 -16 5z"/>
<path d="M3730 479 c0 -5 5 -7 10 -4 6 3 10 8 10 11 0 2 -4 4 -10 4 -5 0 -10
-5 -10 -11z"/>
<path d="M3759 478 c-6 -20 -6 -39 0 -42 4 -3 7 6 7 20 0 20 -4 32 -7 22z"/>
<path d="M2794 446 c3 -16 8 -31 11 -35 3 -3 4 7 1 23 -3 16 -8 31 -11 35 -3
3 -4 -7 -1 -23z"/>
<path d="M2934 459 c-5 -9 -2 -10 9 -6 18 7 24 -8 7 -16 -6 -3 -5 -4 2 -3 16
3 17 28 1 33 -6 2 -15 -1 -19 -8z"/>
<path d="M2992 458 c-7 -9 -6 -18 4 -32 8 -11 14 -15 14 -9 0 7 -5 15 -10 18
-6 4 -8 11 -5 16 9 13 26 11 23 -2 -2 -6 4 -14 12 -16 12 -4 12 -3 2 5 -8 5
-13 13 -12 18 3 14 -16 16 -28 2z"/>
<path d="M3336 463 c-10 -10 -7 -33 4 -33 5 0 7 8 3 18 -6 15 -4 15 16 -2 17
-16 21 -17 16 -4 -7 18 -30 30 -39 21z"/>
<path d="M2413 447 c0 -8 12 -13 29 -13 15 0 28 4 28 9 0 5 -7 6 -16 3 -9 -4
-22 -2 -29 4 -8 7 -12 6 -12 -3z"/>
<path d="M2755 449 c-4 -6 -4 -13 -1 -16 3 -4 6 -1 6 6 0 7 5 9 12 5 7 -4 8
-3 4 4 -9 15 -13 15 -21 1z"/>
<path d="M2910 451 c0 -7 -4 -9 -10 -6 -6 4 -7 -1 -3 -11 6 -15 7 -15 15 1 6
9 7 19 4 22 -3 4 -6 1 -6 -6z"/>
<path d="M3047 449 c7 -9 10 -18 8 -21 -3 -3 7 -13 22 -22 l28 -17 -22 19
c-12 11 -20 22 -17 24 2 3 -4 11 -13 19 -16 12 -17 12 -6 -2z"/>
<path d="M3611 453 c-1 -18 13 -23 29 -11 12 8 12 9 -2 5 -9 -3 -19 -1 -22 6
-3 9 -5 9 -5 0z"/>
<path d="M3713 445 c0 -8 3 -13 5 -10 3 3 12 -1 21 -7 10 -8 9 -4 -3 10 -23
26 -23 26 -23 7z"/>
<path d="M2153 433 c0 -9 4 -10 14 -2 7 6 13 12 13 14 0 1 -6 2 -13 2 -8 0
-14 -6 -14 -14z"/>
<path d="M2254 436 c1 -8 5 -18 8 -22 4 -3 5 1 4 10 -1 8 -5 18 -8 22 -4 3 -5
-1 -4 -10z"/>
<path d="M2515 440 c3 -5 8 -10 11 -10 2 0 4 5 4 10 0 6 -5 10 -11 10 -5 0 -7
-4 -4 -10z"/>
<path d="M2680 435 c-19 -22 -8 -25 13 -3 9 10 13 18 8 18 -5 0 -14 -7 -21
-15z"/>
<path d="M2850 440 c0 -5 5 -10 10 -10 6 0 10 5 10 10 0 6 -4 10 -10 10 -5 0
-10 -4 -10 -10z"/>
<path d="M3796 433 c-6 -14 -5 -15 5 -6 7 7 10 15 7 18 -3 3 -9 -2 -12 -12z"/>
<path d="M3890 440 c0 -5 5 -10 11 -10 5 0 7 5 4 10 -3 6 -8 10 -11 10 -2 0
-4 -4 -4 -10z"/>
<path d="M2555 431 c3 -5 1 -11 -5 -13 -6 -2 -1 -9 9 -15 13 -8 22 -9 26 -3 4
6 3 10 -2 9 -19 -3 -27 2 -15 10 11 7 10 9 -3 14 -9 4 -14 3 -10 -2z"/>
<path d="M2590 436 c0 -2 9 -6 20 -9 11 -3 18 -1 14 4 -5 9 -34 13 -34 5z"/>
<path d="M3272 431 c-10 -6 -9 -10 7 -14 12 -3 24 0 28 5 3 6 1 8 -5 4 -5 -3
-12 -2 -14 4 -2 5 -9 6 -16 1z"/>
<path d="M2355 420 c-3 -5 -1 -10 4 -10 6 0 11 5 11 10 0 6 -2 10 -4 10 -3 0
-8 -4 -11 -10z"/>
<path d="M2718 423 c13 -3 19 -9 16 -15 -4 -7 -2 -8 5 -4 17 11 3 26 -22 25
-22 -2 -22 -2 1 -6z"/>
<path d="M2764 419 c-4 -7 -3 -9 4 -5 5 3 13 0 15 -6 4 -9 6 -10 6 -1 1 17
-16 25 -25 12z"/>
<path d="M2875 420 c-3 -5 -1 -10 4 -10 6 0 11 5 11 10 0 6 -2 10 -4 10 -3 0
-8 -4 -11 -10z"/>
<path d="M2974 422 c3 -5 0 -12 -6 -15 -7 -2 -10 -7 -7 -11 3 -4 12 0 18 8 9
11 9 16 0 22 -7 4 -9 3 -5 -4z"/>
<path d="M3097 419 c7 -7 15 -10 18 -7 3 3 -2 9 -12 12 -14 6 -15 5 -6 -5z"/>
<path d="M3390 420 c0 -5 5 -10 10 -10 6 0 10 5 10 10 0 6 -4 10 -10 10 -5 0
-10 -4 -10 -10z"/>
<path d="M3640 420 c-9 -6 -10 -10 -3 -10 6 0 15 5 18 10 8 12 4 12 -15 0z"/>
<path d="M2457 413 c-10 -9 -9 -23 1 -23 5 0 9 7 9 15 0 17 -1 18 -10 8z"/>
<path d="M3148 397 c-3 -14 0 -24 7 -24 7 0 10 10 7 24 -2 12 -6 23 -7 23 -1
0 -5 -11 -7 -23z"/>
<path d="M3315 410 c-3 -6 1 -7 9 -4 18 7 21 14 7 14 -6 0 -13 -4 -16 -10z"/>
<path d="M3579 418 c-5 -18 -6 -38 -1 -34 7 8 12 36 6 36 -2 0 -4 -1 -5 -2z"/>
<path d="M2685 400 c-3 -6 1 -7 9 -4 18 7 21 14 7 14 -6 0 -13 -4 -16 -10z"/>
<path d="M2895 401 c-3 -5 -2 -12 3 -15 5 -3 9 1 9 9 0 17 -3 19 -12 6z"/>
<path d="M2920 401 c0 -5 7 -12 16 -15 14 -5 15 -4 4 9 -14 17 -20 19 -20 6z"/>
<path d="M3013 397 c-4 -6 -1 -7 7 -2 10 6 12 4 7 -7 -4 -12 -1 -14 16 -10 12
3 16 7 9 10 -7 2 -10 7 -8 11 3 4 -2 8 -10 8 -8 0 -18 -5 -21 -10z"/>
<path d="M3690 399 c0 -5 5 -7 10 -4 6 3 10 8 10 11 0 2 -4 4 -10 4 -5 0 -10
-5 -10 -11z"/>
<path d="M2599 398 c-5 -18 -6 -38 -1 -34 7 8 12 36 6 36 -2 0 -4 -1 -5 -2z"/>
<path d="M2855 390 c-3 -6 1 -7 9 -4 18 7 21 14 7 14 -6 0 -13 -4 -16 -10z"/>
<path d="M3350 390 c-11 -7 -11 -10 -2 -10 8 0 10 -5 6 -12 -4 -7 -3 -9 1 -5
7 6 17 37 12 37 -1 0 -9 -5 -17 -10z"/>
<path d="M3389 383 c-13 -17 -13 -17 6 -3 11 8 22 16 24 17 2 2 0 3 -6 3 -6 0
-17 -8 -24 -17z"/>
<path d="M3510 396 c0 -2 9 -6 20 -9 11 -3 18 -1 14 4 -5 9 -34 13 -34 5z"/>
<path d="M1905 380 c-3 -6 1 -7 9 -4 18 7 21 14 7 14 -6 0 -13 -4 -16 -10z"/>
<path d="M3317 368 c19 -21 31 -25 14 -5 -6 8 -9 16 -6 19 3 2 -2 5 -10 5 -13
0 -13 -3 2 -19z"/>
<path d="M2649 363 c-13 -16 -12 -17 4 -4 16 13 21 21 13 21 -2 0 -10 -8 -17
-17z"/>
<path d="M2811 371 c-8 -5 -16 -17 -17 -26 -1 -9 1 -14 4 -10 4 4 6 9 4 12 -2
3 5 11 15 19 20 15 16 19 -6 5z"/>
<path d="M3213 367 c0 -8 6 -14 14 -14 9 0 10 4 2 14 -6 7 -12 13 -14 13 -1 0
-2 -6 -2 -13z"/>
<path d="M1999 353 c-13 -16 -12 -17 4 -4 16 13 21 21 13 21 -2 0 -10 -8 -17
-17z"/>
<path d="M2200 360 c-8 -5 -10 -10 -5 -10 6 0 17 5 25 10 8 5 11 10 5 10 -5 0
-17 -5 -25 -10z"/>
<path d="M2833 352 c-8 -14 -8 -19 1 -19 7 0 13 9 13 19 1 10 1 18 0 18 -1 0
-7 -8 -14 -18z"/>
<path d="M2935 361 c-3 -5 -2 -12 3 -15 5 -3 9 1 9 9 0 17 -3 19 -12 6z"/>
<path d="M3034 358 c-4 -7 -4 -10 1 -6 4 4 15 2 24 -5 14 -11 14 -10 2 6 -16
20 -18 21 -27 5z"/>
<path d="M3250 362 c0 -5 7 -9 15 -9 8 0 12 4 9 9 -3 4 -9 8 -15 8 -5 0 -9 -4
-9 -8z"/>
<path d="M3290 361 c0 -6 4 -13 10 -16 6 -3 7 1 4 9 -7 18 -14 21 -14 7z"/>
<path d="M3726 362 c-3 -5 1 -9 9 -9 8 0 12 4 9 9 -3 4 -7 8 -9 8 -2 0 -6 -4
-9 -8z"/>
<path d="M3785 360 c-3 -6 1 -7 9 -4 18 7 21 14 7 14 -6 0 -13 -4 -16 -10z"/>
<path d="M3873 355 c0 -8 4 -12 9 -9 5 3 6 10 3 15 -9 13 -12 11 -12 -6z"/>
<path d="M2315 349 c-4 -6 -5 -12 -2 -15 2 -3 7 2 10 11 7 17 1 20 -8 4z"/>
<path d="M2519 348 c-5 -18 -6 -38 -1 -34 7 8 12 36 6 36 -2 0 -4 -1 -5 -2z"/>
<path d="M3110 338 c0 -4 4 -8 9 -8 6 0 12 4 15 8 3 5 -1 9 -9 9 -8 0 -15 -4
-15 -9z"/>
<path d="M3555 331 c-3 -5 -2 -12 3 -15 5 -3 9 1 9 9 0 17 -3 19 -12 6z"/>
<path d="M2713 315 c0 -8 4 -12 9 -9 4 3 8 9 8 15 0 5 -4 9 -8 9 -5 0 -9 -7
-9 -15z"/>
<path d="M2750 318 c0 -4 4 -8 9 -8 6 0 12 4 15 8 3 5 -1 9 -9 9 -8 0 -15 -4
-15 -9z"/>
<path d="M3590 326 c0 -2 7 -7 16 -10 8 -3 12 -2 9 4 -6 10 -25 14 -25 6z"/>
<path d="M2390 305 c0 -5 5 -17 10 -25 5 -8 10 -10 10 -5 0 6 -5 17 -10 25 -5
8 -10 11 -10 5z"/>
<path d="M2435 299 c-3 -4 2 -6 10 -5 21 3 28 13 10 13 -9 0 -18 -4 -20 -8z"/>
<path d="M2750 280 c0 -5 5 -10 11 -10 5 0 7 5 4 10 -3 6 -8 10 -11 10 -2 0
-4 -4 -4 -10z"/>
<path d="M3470 286 c0 -2 7 -7 16 -10 8 -3 12 -2 9 4 -6 10 -25 14 -25 6z"/>
<path d="M2115 249 c-4 -6 -5 -12 -2 -15 2 -3 7 2 10 11 7 17 1 20 -8 4z"/>
</g>
</svg>
